<mxfile host="app.diagrams.net" modified="2023-10-04T02:37:24.189Z" agent="Mozilla/5.0 (Windows NT 10.0; Win64; x64; rv:109.0) Gecko/20100101 Firefox/117.0" etag="PU9h4GJKx0lO6OkJP0M7" version="22.0.2" type="github">
  <diagram name="Page-1" id="-Rve0Tr7pEIlJw6nE0QR">
    <mxGraphModel dx="880" dy="1570" grid="1" gridSize="10" guides="1" tooltips="1" connect="1" arrows="1" fold="1" page="1" pageScale="1" pageWidth="850" pageHeight="1100" math="0" shadow="0">
      <root>
        <mxCell id="0" />
        <mxCell id="1" parent="0" />
        <mxCell id="lK5pPZv2jzX1POyeuz0M-36" style="edgeStyle=none;rounded=0;orthogonalLoop=1;jettySize=auto;html=1;exitX=0.5;exitY=1;exitDx=0;exitDy=0;exitPerimeter=0;" parent="1" source="lK5pPZv2jzX1POyeuz0M-35" edge="1">
          <mxGeometry relative="1" as="geometry">
            <mxPoint x="400" y="110" as="targetPoint" />
          </mxGeometry>
        </mxCell>
        <mxCell id="lK5pPZv2jzX1POyeuz0M-35" value="mulai" style="strokeWidth=2;html=1;shape=mxgraph.flowchart.terminator;whiteSpace=wrap;" parent="1" vertex="1">
          <mxGeometry x="350" width="100" height="60" as="geometry" />
        </mxCell>
        <mxCell id="lK5pPZv2jzX1POyeuz0M-38" style="edgeStyle=none;rounded=0;orthogonalLoop=1;jettySize=auto;html=1;exitX=0.5;exitY=1;exitDx=0;exitDy=0;" parent="1" source="lK5pPZv2jzX1POyeuz0M-37" edge="1">
          <mxGeometry relative="1" as="geometry">
            <mxPoint x="400" y="220" as="targetPoint" />
          </mxGeometry>
        </mxCell>
        <mxCell id="lK5pPZv2jzX1POyeuz0M-37" value="angka" style="shape=parallelogram;html=1;strokeWidth=2;perimeter=parallelogramPerimeter;whiteSpace=wrap;rounded=1;arcSize=12;size=0.23;" parent="1" vertex="1">
          <mxGeometry x="350" y="110" width="100" height="60" as="geometry" />
        </mxCell>
        <mxCell id="lK5pPZv2jzX1POyeuz0M-40" style="edgeStyle=none;rounded=0;orthogonalLoop=1;jettySize=auto;html=1;exitX=0.5;exitY=1;exitDx=0;exitDy=0;" parent="1" source="lK5pPZv2jzX1POyeuz0M-39" edge="1">
          <mxGeometry relative="1" as="geometry">
            <mxPoint x="400" y="320" as="targetPoint" />
          </mxGeometry>
        </mxCell>
        <mxCell id="lK5pPZv2jzX1POyeuz0M-39" value="tebakan" style="shape=parallelogram;html=1;strokeWidth=2;perimeter=parallelogramPerimeter;whiteSpace=wrap;rounded=1;arcSize=12;size=0.23;" parent="1" vertex="1">
          <mxGeometry x="350" y="220" width="100" height="60" as="geometry" />
        </mxCell>
        <mxCell id="lK5pPZv2jzX1POyeuz0M-41" value="proses penebakan angka" style="rounded=1;whiteSpace=wrap;html=1;absoluteArcSize=1;arcSize=14;strokeWidth=2;" parent="1" vertex="1">
          <mxGeometry x="275" y="320" width="250" height="60" as="geometry" />
        </mxCell>
        <mxCell id="lK5pPZv2jzX1POyeuz0M-43" style="edgeStyle=none;rounded=0;orthogonalLoop=1;jettySize=auto;html=1;" parent="1" source="lK5pPZv2jzX1POyeuz0M-42" edge="1">
          <mxGeometry relative="1" as="geometry">
            <mxPoint x="300" y="460" as="targetPoint" />
            <Array as="points">
              <mxPoint x="300" y="460" />
            </Array>
          </mxGeometry>
        </mxCell>
        <mxCell id="lK5pPZv2jzX1POyeuz0M-42" value="angka=tebakan" style="strokeWidth=2;html=1;shape=mxgraph.flowchart.decision;whiteSpace=wrap;" parent="1" vertex="1">
          <mxGeometry x="340" y="410" width="100" height="100" as="geometry" />
        </mxCell>
        <mxCell id="lK5pPZv2jzX1POyeuz0M-46" style="edgeStyle=orthogonalEdgeStyle;rounded=0;orthogonalLoop=1;jettySize=auto;html=1;exitX=0;exitY=0.25;exitDx=0;exitDy=0;" parent="1" source="lK5pPZv2jzX1POyeuz0M-45" edge="1">
          <mxGeometry relative="1" as="geometry">
            <mxPoint x="80" y="540" as="targetPoint" />
          </mxGeometry>
        </mxCell>
        <mxCell id="lK5pPZv2jzX1POyeuz0M-45" value="benar" style="shape=parallelogram;html=1;strokeWidth=2;perimeter=parallelogramPerimeter;whiteSpace=wrap;rounded=1;arcSize=12;size=0.23;" parent="1" vertex="1">
          <mxGeometry x="210" y="440" width="100" height="60" as="geometry" />
        </mxCell>
        <mxCell id="lK5pPZv2jzX1POyeuz0M-47" style="edgeStyle=none;rounded=0;orthogonalLoop=1;jettySize=auto;html=1;exitX=0.5;exitY=1;exitDx=0;exitDy=0;entryX=0.6;entryY=0.05;entryDx=0;entryDy=0;entryPerimeter=0;" parent="1" source="lK5pPZv2jzX1POyeuz0M-41" target="lK5pPZv2jzX1POyeuz0M-42" edge="1">
          <mxGeometry relative="1" as="geometry" />
        </mxCell>
        <mxCell id="lK5pPZv2jzX1POyeuz0M-53" value="end" style="strokeWidth=2;html=1;shape=mxgraph.flowchart.terminator;whiteSpace=wrap;" parent="1" vertex="1">
          <mxGeometry x="30" y="540" width="100" height="60" as="geometry" />
        </mxCell>
        <mxCell id="lK5pPZv2jzX1POyeuz0M-57" value="YES" style="edgeStyle=orthogonalEdgeStyle;rounded=0;orthogonalLoop=1;jettySize=auto;html=1;" parent="1" source="lK5pPZv2jzX1POyeuz0M-56" edge="1">
          <mxGeometry relative="1" as="geometry">
            <mxPoint x="510" y="610" as="targetPoint" />
          </mxGeometry>
        </mxCell>
        <mxCell id="lK5pPZv2jzX1POyeuz0M-59" value="NO" style="edgeStyle=none;rounded=0;orthogonalLoop=1;jettySize=auto;html=1;exitX=0.5;exitY=1;exitDx=0;exitDy=0;exitPerimeter=0;" parent="1" source="lK5pPZv2jzX1POyeuz0M-56" edge="1">
          <mxGeometry relative="1" as="geometry">
            <mxPoint x="390" y="710" as="targetPoint" />
            <Array as="points">
              <mxPoint x="390" y="710" />
            </Array>
          </mxGeometry>
        </mxCell>
        <mxCell id="lK5pPZv2jzX1POyeuz0M-56" value="angka=tebakan" style="strokeWidth=2;html=1;shape=mxgraph.flowchart.decision;whiteSpace=wrap;" parent="1" vertex="1">
          <mxGeometry x="340" y="560" width="100" height="100" as="geometry" />
        </mxCell>
        <mxCell id="lK5pPZv2jzX1POyeuz0M-66" value="YES" style="edgeStyle=none;rounded=0;orthogonalLoop=1;jettySize=auto;html=1;exitX=1;exitY=0.5;exitDx=0;exitDy=0;exitPerimeter=0;" parent="1" source="lK5pPZv2jzX1POyeuz0M-60" edge="1">
          <mxGeometry relative="1" as="geometry">
            <mxPoint x="520" y="760" as="targetPoint" />
          </mxGeometry>
        </mxCell>
        <mxCell id="lK5pPZv2jzX1POyeuz0M-74" value="NO" style="edgeStyle=none;rounded=0;orthogonalLoop=1;jettySize=auto;html=1;exitX=0.5;exitY=1;exitDx=0;exitDy=0;exitPerimeter=0;" parent="1" source="lK5pPZv2jzX1POyeuz0M-60" edge="1">
          <mxGeometry relative="1" as="geometry">
            <mxPoint x="250" y="510" as="targetPoint" />
            <Array as="points">
              <mxPoint x="390" y="830" />
              <mxPoint x="360" y="830" />
              <mxPoint x="310" y="830" />
              <mxPoint x="250" y="830" />
            </Array>
          </mxGeometry>
        </mxCell>
        <mxCell id="lK5pPZv2jzX1POyeuz0M-60" value="angka=tebakan" style="strokeWidth=2;html=1;shape=mxgraph.flowchart.decision;whiteSpace=wrap;" parent="1" vertex="1">
          <mxGeometry x="340" y="710" width="100" height="100" as="geometry" />
        </mxCell>
        <mxCell id="lK5pPZv2jzX1POyeuz0M-61" value="NO" style="edgeStyle=none;rounded=0;orthogonalLoop=1;jettySize=auto;html=1;exitX=0.5;exitY=1;exitDx=0;exitDy=0;exitPerimeter=0;entryX=0.5;entryY=0;entryDx=0;entryDy=0;entryPerimeter=0;" parent="1" source="lK5pPZv2jzX1POyeuz0M-42" target="lK5pPZv2jzX1POyeuz0M-56" edge="1">
          <mxGeometry relative="1" as="geometry" />
        </mxCell>
        <mxCell id="lK5pPZv2jzX1POyeuz0M-72" style="edgeStyle=orthogonalEdgeStyle;rounded=0;orthogonalLoop=1;jettySize=auto;html=1;exitX=1;exitY=0.75;exitDx=0;exitDy=0;entryX=1;entryY=0.5;entryDx=0;entryDy=0;" parent="1" source="lK5pPZv2jzX1POyeuz0M-68" target="lK5pPZv2jzX1POyeuz0M-39" edge="1">
          <mxGeometry relative="1" as="geometry">
            <Array as="points">
              <mxPoint x="770" y="767" />
              <mxPoint x="770" y="250" />
            </Array>
          </mxGeometry>
        </mxCell>
        <mxCell id="lK5pPZv2jzX1POyeuz0M-68" value="&lt;div&gt;angka saya&lt;/div&gt;&lt;div&gt;lebih besar&lt;br&gt;&lt;/div&gt;" style="shape=parallelogram;html=1;strokeWidth=2;perimeter=parallelogramPerimeter;whiteSpace=wrap;rounded=1;arcSize=12;size=0.23;" parent="1" vertex="1">
          <mxGeometry x="510" y="720" width="140" height="70" as="geometry" />
        </mxCell>
        <mxCell id="lK5pPZv2jzX1POyeuz0M-75" style="edgeStyle=none;rounded=0;orthogonalLoop=1;jettySize=auto;html=1;exitX=0.5;exitY=0;exitDx=0;exitDy=0;entryX=1;entryY=0.5;entryDx=0;entryDy=0;" parent="1" source="lK5pPZv2jzX1POyeuz0M-69" target="lK5pPZv2jzX1POyeuz0M-39" edge="1">
          <mxGeometry relative="1" as="geometry">
            <Array as="points">
              <mxPoint x="570" y="250" />
            </Array>
          </mxGeometry>
        </mxCell>
        <mxCell id="lK5pPZv2jzX1POyeuz0M-69" value="&lt;div&gt;angka saya&lt;/div&gt;&lt;div&gt;lebih kecil&lt;br&gt;&lt;/div&gt;" style="shape=parallelogram;html=1;strokeWidth=2;perimeter=parallelogramPerimeter;whiteSpace=wrap;rounded=1;arcSize=12;size=0.23;" parent="1" vertex="1">
          <mxGeometry x="500" y="580" width="140" height="60" as="geometry" />
        </mxCell>
      </root>
    </mxGraphModel>
  </diagram>
</mxfile>
